<svg width="37" height="36" viewBox="0 0 37 36" fill="none" xmlns="http://www.w3.org/2000/svg">
<g clip-path="url(#clip0_11686_3682)">
<path fill-rule="evenodd" clip-rule="evenodd" d="M16.25 5.625C11.2794 5.625 7.25 9.65444 7.25 14.625C7.25 14.8753 7.26024 15.1234 7.28036 15.3688C4.6044 16.6261 2.75 19.3453 2.75 22.5C2.75 26.8492 6.27576 30.375 10.625 30.375H27.5C31.2279 30.375 34.25 27.3529 34.25 23.625C34.25 21.0979 32.8616 18.8972 30.8087 17.7405C30.8524 17.458 30.875 17.1689 30.875 16.875C30.875 13.7684 28.3566 11.25 25.25 11.25C25.0338 11.25 24.8203 11.2622 24.61 11.2861C23.284 7.96923 20.0419 5.625 16.25 5.625ZM19.2955 13.8295C18.8562 13.3902 18.1438 13.3902 17.7045 13.8295L13.2045 18.3295C12.7652 18.7688 12.7652 19.4812 13.2045 19.9205C13.6438 20.3598 14.3562 20.3598 14.7955 19.9205L17.375 17.341L17.375 24.75C17.375 25.3713 17.8787 25.875 18.5 25.875C19.1213 25.875 19.625 25.3713 19.625 24.75V17.341L22.2045 19.9205C22.6438 20.3598 23.3562 20.3598 23.7955 19.9205C24.2348 19.4812 24.2348 18.7688 23.7955 18.3295L19.2955 13.8295Z" fill="#87B71F"/>
</g>
<defs>
<clipPath id="clip0_11686_3682">
<rect width="36" height="36" fill="white" transform="translate(0.5)"/>
</clipPath>
</defs>
</svg>
