<svg width="328" height="187" viewBox="0 0 328 187" fill="#B8DE64" xmlns="http://www.w3.org/2000/svg">
<rect width="201" height="78" transform="translate(25 11.2964) rotate(-3.22178)" fill="#B8DE64"/>
<path d="M78.1419 45.599C76.6756 43.0373 72.746 38.7965 63.0264 39.3436C62.7518 39.3591 62.3705 39.4356 61.9312 39.4603C60.7293 39.6382 58.6488 39.8655 57.1383 39.4547C54.566 38.7732 53.8414 36.6656 54.0294 35.1126C54.1625 33.5626 55.2229 31.8503 57.694 31.7112L71.5321 30.9323L71.8103 35.8745L76.9721 35.5839L76.4034 25.4799L57.4035 26.5494C54.9873 26.6854 52.9439 27.5716 51.383 29.2019C49.9777 30.6582 49.0912 32.526 48.8761 34.5763C48.4188 39.1743 51.2926 43.2542 55.821 44.4316C58.2835 45.1193 60.965 44.8031 62.5513 44.6036C62.8807 44.5851 63.2071 44.5116 63.317 44.5054C68.4788 44.2149 72.1347 45.5515 73.659 48.165C74.8229 50.2479 74.5961 53.0701 72.9656 55.4204C70.936 58.5094 67.273 59.9826 63.1662 59.4425C59.5598 58.9845 56.8521 56.8783 55.0464 53.179C54.1694 51.3003 53.6126 49.2383 53.3304 47.1609L50.7526 47.3611L48.2297 47.5582C48.239 47.7229 48.501 51.399 50.316 55.2631C52.8765 60.6277 57.0799 63.8616 62.5171 64.5471C63.5728 64.708 64.6772 64.756 65.7755 64.6942C70.498 64.4283 74.6669 62.1555 77.2603 58.3186C79.9543 54.3109 80.2864 49.4445 78.1419 45.599ZM112.932 28.1061L112.644 22.9992L107.647 23.2805L107.644 23.2256L102.537 23.513L102.54 23.5679L97.9827 23.8245L98.2701 28.9314L102.828 28.6749L103.301 37.0766L91.7691 37.7257L91.2962 29.324L95.799 29.0705L95.5116 23.9636L91.0087 24.2171L91.0056 24.1622L85.8438 24.4527L85.8469 24.5076L80.9047 24.7858L81.1922 29.8927L86.1343 29.6145L86.6073 38.0162L81.6651 38.2944L81.9557 43.4563L86.8978 43.1781L87.717 57.73L82.7748 58.0082L83.0623 63.1151L88.0044 62.8369L88.0075 62.8919L93.1694 62.6013L93.1663 62.5464L97.6691 62.2929L97.3817 57.186L92.8788 57.4395L92.0597 42.8875L103.591 42.2384L104.411 56.7904L99.8528 57.0469L100.14 62.1538L104.698 61.8973L104.701 61.9522L109.808 61.6647L109.805 61.6098L114.802 61.3285L114.515 56.2216L109.517 56.5029L108.698 41.9509L113.695 41.6696L113.405 36.5078L108.408 36.7891L107.935 28.3874L112.932 28.1061ZM132.667 21.8171L119.048 22.5836L119.339 27.7455L124.446 27.458L116.874 61.267L122.2 60.9672L122.197 60.9122L126.151 60.6897C129.94 60.4764 131.815 58.553 132.769 56.9018C133.826 55.1346 134.102 53.191 134.296 51.7478C134.33 51.3603 134.412 50.8599 134.457 50.6921C134.74 49.8498 135.21 49.3827 136.082 49.2234C136.299 49.1561 136.464 49.1469 136.683 49.1345L140.431 59.9409L145.758 59.6411L132.667 21.8171ZM129.523 49.1519C129.389 49.7103 129.258 50.3237 129.189 51.0437C128.767 54.3176 128.225 55.4499 125.864 55.5828L123.392 55.7219L129.52 28.5495L134.971 44.1629C132.253 44.8116 130.369 46.5703 129.523 49.1519ZM169.676 38.188C173.162 36.5044 174.923 33.5407 174.716 29.8615C174.494 25.9078 172.344 22.9439 168.575 21.5586C166.945 20.9893 165.166 20.7038 163.406 20.7478L155.499 21.1929L150.337 21.4834L145.395 21.7616L145.685 26.9235L150.627 26.6453L151.1 35.047L146.158 35.3252L146.449 40.487L151.391 40.2088L152.207 54.7059L147.704 54.9593L147.995 60.1212L152.497 59.8677L157.659 59.5771L162.162 59.3237L161.872 54.1618L157.369 54.4153L156.553 39.9182L157.651 39.8564C162.319 39.5937 170.258 41.6808 171.223 58.8136L176.33 58.5262C175.807 49.2459 173.279 42.5023 168.758 38.5151C169.085 38.4416 169.353 38.3163 169.676 38.188ZM164.499 34.2928L156.262 34.7564L155.789 26.3547L163.697 25.9096C164.743 25.9058 165.799 26.0667 166.809 26.3955C168.609 27.0653 169.501 28.2271 169.609 30.149C169.696 31.6866 169.038 32.7152 167.537 33.4607C166.143 34.1451 164.609 34.2866 164.499 34.2928ZM204.953 22.9262L204.666 17.8193L187.643 18.7775L187.64 18.7226L182.478 19.0132L182.481 19.0681L177.539 19.3463L177.826 24.4532L182.768 24.175L183.241 32.5767L178.299 32.8549L178.59 38.0167L183.532 37.7385L184.351 52.2905L179.409 52.5687L179.696 57.6756L184.639 57.3974L184.642 57.4523L189.803 57.1618L189.8 57.1069L206.823 56.1486L206.536 51.0417L189.513 51.9999L188.694 37.448L201.543 36.7247L201.253 31.5628L188.403 32.2862L187.93 23.8845L204.953 22.9262Z" fill="#131313"/>
<rect width="319" height="78" transform="translate(0 109.327) rotate(-8.89542)" fill="#B8DE64"/>
<path d="M45.2587 119.056L46.0496 124.109L50.5054 123.412L51.696 131.019C51.7045 131.074 52.2881 135.158 50.1339 138.111C48.8964 139.808 47.0507 140.821 44.3881 141.237C41.7256 141.654 39.4873 141.225 37.7905 139.988C34.9626 137.925 34.2959 134.021 34.2075 133.812L33.0084 126.151L37.5728 125.436L36.7819 120.383L22.8169 122.568L23.6078 127.622L27.9549 126.942L29.1456 134.549C29.2306 135.092 30.1694 140.735 34.7112 144.144C37.5476 146.261 41.0579 146.992 45.1876 146.345C48.2849 145.86 50.8284 144.683 52.7808 142.93C52.7978 143.039 52.8607 143.084 52.8777 143.193C54.2914 146.535 53.5264 149.828 50.8643 152.026C49.0408 153.536 46.5006 154.379 43.6613 154.378C40.2616 154.353 36.612 153.087 33.1353 150.792L30.3073 155.132C34.6468 157.96 39.2254 159.47 43.6287 159.505C44.6323 159.514 45.6274 159.47 46.6055 159.317C49.4854 158.866 52.0833 157.68 54.2072 155.956C58.5841 152.265 59.9327 146.654 57.6354 141.224C57.1851 140.125 56.6346 139.098 55.9296 138.151C57.3874 134.304 56.8549 130.546 56.8039 130.22L55.6132 122.613L60.0146 121.924L59.2237 116.87L45.2587 119.056ZM102.083 129.535C101.768 127.525 100.114 126.559 98.8823 125.805C98.7023 125.722 98.4509 125.539 98.2624 125.401C98.2827 125.175 98.3404 124.832 98.415 124.598C98.6456 123.226 99.0255 121.385 97.7838 119.854C96.5421 118.322 94.6435 118.285 93.2425 118.226C93.0167 118.206 92.6822 118.203 92.402 118.191C92.3136 117.982 92.2082 117.664 92.1742 117.447C91.6899 116.131 91.0747 114.335 89.2371 113.62C87.3996 112.906 85.7543 113.776 84.5267 114.469C84.3263 114.611 84.0173 114.771 83.7541 114.868C83.5656 114.73 83.3601 114.484 83.1715 114.347C82.1405 113.45 80.6611 112.179 78.7049 112.485C76.6944 112.8 75.7286 114.454 74.9664 115.631C74.8833 115.811 74.7084 116.117 74.5709 116.305C74.3451 116.285 74.002 116.227 73.7677 116.153C72.387 115.868 70.5003 115.551 69.0232 116.784C67.4375 118.034 67.4006 119.933 67.3959 121.325C67.3755 121.551 67.3722 121.886 67.3519 122.111C67.1431 122.2 66.8255 122.305 66.6167 122.394C65.3008 122.878 63.4499 123.502 62.7355 125.339C62.021 127.177 62.9453 128.813 63.6384 130.041C63.7268 130.25 63.8865 130.559 64.0292 130.759C63.8373 130.956 63.654 131.208 63.508 131.342C62.5658 132.436 61.3401 133.852 61.6548 135.863C61.961 137.819 63.5694 138.848 64.7922 139.547C64.9807 139.684 65.2321 139.868 65.475 139.997C65.4003 140.231 65.3427 140.574 65.3224 140.8C65.0374 142.181 64.6575 144.022 65.8992 145.553C67.141 147.084 69.0939 147.113 70.4948 147.172C70.7122 147.138 71.0552 147.195 71.2811 147.216C71.3695 147.425 71.4748 147.742 71.5632 147.951C71.9932 149.275 72.6083 151.072 74.5003 151.778C76.2835 152.501 77.9746 151.568 79.2107 150.929C79.411 150.787 79.7201 150.627 79.9289 150.539C80.1174 150.676 80.3688 150.859 80.5115 151.06C81.5969 151.948 83.0219 153.228 85.0325 152.913C86.9886 152.607 88.0088 150.944 88.7166 149.776C88.8456 149.533 88.9746 149.29 89.1121 149.101C89.3923 149.113 89.7354 149.171 89.9697 149.245C91.3419 149.476 93.1828 149.856 94.7142 148.614C96.2456 147.372 96.2825 145.474 96.3415 144.073C96.3075 143.856 96.3108 143.521 96.3311 143.295C96.5943 143.198 96.9033 143.039 97.1207 143.005C98.4366 142.52 100.233 141.905 100.948 140.067C101.662 138.23 100.738 136.593 100.099 135.357C99.9563 135.157 99.7966 134.848 99.7082 134.639C99.8457 134.45 100.029 134.199 100.167 134.01C101.117 132.971 102.389 131.491 102.083 129.535ZM96.3024 130.663C95.5436 131.505 94.6014 132.599 94.4421 134.071C94.2829 135.544 94.9845 136.826 95.535 137.853C95.5978 137.899 95.6064 137.953 95.6777 138.053C95.569 138.07 95.5147 138.079 95.4603 138.087C94.3533 138.483 92.983 138.976 92.1121 140.17C91.187 141.372 91.1907 142.819 91.152 143.994C91.1605 144.049 91.169 144.103 91.1317 144.22C91.0773 144.229 91.0145 144.183 90.9601 144.191C89.8053 143.927 88.3703 143.65 86.9627 144.26C85.6638 144.853 84.9101 146.085 84.2855 147.073C84.2481 147.19 84.2023 147.253 84.165 147.37C84.0393 147.279 83.9764 147.233 83.9051 147.133C83.0626 146.374 81.9688 145.432 80.4964 145.272C80.1619 145.269 79.773 145.274 79.3927 145.334C78.3602 145.495 77.4875 145.966 76.7235 146.42C76.6691 146.428 76.5689 146.5 76.5146 146.508C76.4976 146.399 76.4891 146.345 76.4262 146.299C76.0846 145.184 75.5918 143.813 74.3978 142.942C73.2038 142.072 71.7484 142.021 70.5733 141.982C70.519 141.991 70.4103 142.008 70.356 142.016C70.339 141.908 70.3848 141.845 70.3763 141.79C70.5866 140.644 70.863 139.209 70.2615 137.856C69.66 136.503 68.4287 135.749 67.4487 135.179C67.3773 135.078 67.2602 135.041 67.1973 134.995C67.2431 134.932 67.3348 134.807 67.3806 134.744C68.1395 133.901 69.0817 132.808 69.2409 131.335C69.4002 129.863 68.6985 128.581 68.1481 127.554C68.1395 127.499 68.0767 127.454 68.0597 127.345C68.114 127.336 68.2227 127.319 68.2685 127.257C69.3841 126.915 70.7544 126.422 71.6253 125.228C72.4961 124.034 72.5467 122.579 72.5311 121.412C72.5769 121.349 72.5599 121.241 72.5514 121.186C72.6057 121.178 72.7229 121.215 72.7773 121.207C73.9236 121.417 75.3671 121.748 76.7118 121.092C78.0736 120.545 78.8273 119.313 79.3891 118.279C79.4349 118.216 79.4808 118.153 79.5724 118.028C79.6438 118.128 79.7066 118.174 79.7695 118.219C80.6748 119.024 81.7686 119.966 83.1781 120.08C84.7048 120.231 85.9867 119.529 87.0139 118.978C87.0683 118.97 87.1141 118.907 87.1685 118.899C87.2313 118.944 87.2483 119.053 87.2568 119.107C87.6528 120.214 88.0912 121.593 89.3396 122.456C90.5336 123.326 91.9889 123.377 93.1556 123.361C93.2184 123.407 93.2727 123.399 93.3814 123.382C93.3441 123.499 93.3526 123.553 93.3068 123.616C93.0965 124.762 92.8201 126.197 93.4216 127.551C94.023 128.904 95.2544 129.658 96.2344 130.228C96.2972 130.274 96.4229 130.365 96.4857 130.411C96.4399 130.474 96.3397 130.545 96.3024 130.663ZM124.84 106.545L128.804 131.866C128.812 131.921 129.396 136.005 127.241 138.958C126.004 140.655 124.158 141.668 121.496 142.084C118.779 142.51 116.595 142.072 114.898 140.835C112.007 138.726 111.341 134.822 111.315 134.659L107.343 109.283L102.29 110.074L106.253 135.396C106.284 135.948 107.223 141.59 111.756 144.945C114.647 147.053 118.165 147.839 122.295 147.192C126.316 146.563 129.381 144.803 131.389 141.983C134.781 137.333 133.917 131.456 133.857 131.075L129.894 105.754L124.84 106.545ZM159.68 119.741C162.982 117.721 164.442 114.598 163.872 110.957C163.26 107.045 160.827 104.308 156.94 103.302C155.262 102.897 153.464 102.788 151.716 103.006L143.892 104.231L138.784 105.03L133.893 105.796L134.693 110.904L139.583 110.138L140.885 118.452L135.994 119.217L136.793 124.325L141.684 123.56L143.929 137.905L139.473 138.603L140.273 143.71L144.729 143.013L149.836 142.214L154.292 141.516L153.493 136.408L149.037 137.106L146.792 122.76L147.879 122.59C152.497 121.867 160.605 123.159 163.258 140.113L168.312 139.322C166.874 130.139 163.692 123.678 158.799 120.157C159.116 120.052 159.371 119.901 159.68 119.741ZM154.143 116.377L145.992 117.653L144.691 109.339L152.516 108.114C153.557 108.007 154.623 108.063 155.661 108.29C157.519 108.778 158.521 109.846 158.819 111.748C159.057 113.27 158.503 114.358 157.084 115.248C155.765 116.067 154.252 116.36 154.143 116.377ZM207.687 93.578L207.696 93.6323L188.188 96.6855L188.18 96.6312L183.126 97.4221L185.601 113.235L190.655 112.444L188.979 101.739L196.315 100.591L200.669 128.412L196.214 129.11L197.005 134.163L201.46 133.466L206.568 132.666L210.97 131.977L210.179 126.924L205.777 127.613L201.423 99.7914L208.487 98.6858L210.162 109.39L215.27 108.591L212.795 92.7785L207.687 93.578ZM230.335 90.0333L216.859 92.1425L217.658 97.2503L222.712 96.4594L218.519 130.851L223.79 130.026L223.782 129.972L227.694 129.36C231.443 128.773 233.119 126.674 233.905 124.936C234.782 123.073 234.865 121.112 234.915 119.656C234.91 119.267 234.942 118.761 234.971 118.59C235.17 117.724 235.591 117.213 236.443 116.968C236.652 116.879 236.815 116.854 237.032 116.82L241.83 127.203L247.101 126.378L230.335 90.0333ZM229.909 117.545C229.831 118.114 229.761 118.737 229.763 119.461C229.667 122.76 229.24 123.941 226.903 124.306L224.458 124.689L227.869 97.0439L234.837 112.042C232.197 112.956 230.496 114.892 229.909 117.545ZM266.563 113.033L267.337 117.978L257.067 119.585L252.712 91.7639L257.168 91.0665L256.377 86.013L251.921 86.7104L251.913 86.656L246.859 87.447L246.868 87.5013L242.412 88.1987L243.203 93.2522L247.659 92.5548L252.013 120.376L247.558 121.073L248.349 126.127L252.804 125.43L252.813 125.484L257.866 124.693L257.858 124.639L273.236 122.232L271.671 112.234L266.563 113.033ZM296.964 84.8378L296.173 79.7843L279.328 82.4208L279.32 82.3665L274.212 83.1659L274.221 83.2203L269.33 83.9857L270.121 89.0392L275.012 88.2737L276.313 96.5875L271.422 97.3529L272.222 102.461L277.112 101.695L279.366 116.095L274.476 116.86L275.266 121.914L280.157 121.149L280.165 121.203L285.273 120.403L285.265 120.349L302.11 117.713L301.319 112.659L284.474 115.296L282.22 100.896L294.935 98.9058L294.136 93.798L281.421 95.7881L280.119 87.4743L296.964 84.8378Z" fill="#131313"/>
</svg>
